<?xml version="1.0" encoding="UTF-8"?>
<svg width="16px" height="16px" viewBox="0 0 16 16" version="1.1" xmlns="http://www.w3.org/2000/svg" xmlns:xlink="http://www.w3.org/1999/xlink">
    <!-- Generator: Sketch 59.1 (86144) - https://sketch.com -->
    <title>Path</title>
    <desc>Created with Sketch.</desc>
    <g id="Page-1" stroke="none" stroke-width="1" fill="none" fill-rule="evenodd">
        <g id="Borrower-Portal---My-Loans---Details" transform="translate(-75.000000, -712.000000)" fill="#3989E3" fill-rule="nonzero">
            <g id="Group-27" transform="translate(50.000000, 565.000000)">
                <g id="Group-16" transform="translate(25.000000, 130.000000)">
                    <path d="M14.8571429,23.2857143 L9.71428571,23.2857143 L9.71428571,18.1428571 C9.71428571,17.5117857 9.2025,17 8.57142857,17 L7.42857143,17 C6.7975,17 6.28571429,17.5117857 6.28571429,18.1428571 L6.28571429,23.2857143 L1.14285714,23.2857143 C0.511785714,23.2857143 0,23.7975 0,24.4285714 L0,25.5714286 C0,26.2025 0.511785714,26.7142857 1.14285714,26.7142857 L6.28571429,26.7142857 L6.28571429,31.8571429 C6.28571429,32.4882143 6.7975,33 7.42857143,33 L8.57142857,33 C9.2025,33 9.71428571,32.4882143 9.71428571,31.8571429 L9.71428571,26.7142857 L14.8571429,26.7142857 C15.4882143,26.7142857 16,26.2025 16,25.5714286 L16,24.4285714 C16,23.7975 15.4882143,23.2857143 14.8571429,23.2857143 Z" id="Path"></path>
                </g>
            </g>
        </g>
    </g>
</svg>