<?xml version="1.0" encoding="UTF-8"?>
<svg width="22px" height="22px" viewBox="0 0 22 22" version="1.1" xmlns="http://www.w3.org/2000/svg" xmlns:xlink="http://www.w3.org/1999/xlink">
    <!-- Generator: Sketch 59.1 (86144) - https://sketch.com -->
    <title>Shape</title>
    <desc>Created with Sketch.</desc>
    <g id="Page-1" stroke="none" stroke-width="1" fill="none" fill-rule="evenodd">
        <g id="Borrower-Portal---Dashboard" transform="translate(-153.000000, -507.000000)" fill="#FFFFFF" fill-rule="nonzero">
            <g id="Group-11" transform="translate(50.000000, 186.000000)">
                <g id="Group-7" transform="translate(25.000000, 307.000000)">
                    <path d="M100,25.0416182 C100,28.8425242 96.915918,31.93481 93.125,31.93481 L85.3075664,31.93481 L86.7905039,33.3314999 C87.2148203,33.7311327 87.2253047,34.4035205 86.8136641,34.8162934 L86.3506758,35.2805068 C85.9479297,35.6842755 85.2950195,35.6842755 84.8922734,35.2805068 L80.9096719,31.287367 C80.5069258,30.8835552 80.5069258,30.2289174 80.9096719,29.8251056 L84.8922734,25.8319657 C85.2950195,25.4281539 85.9479297,25.4281539 86.3506758,25.8319657 L86.8136641,26.2961791 C87.2253477,26.708952 87.2148633,27.3812967 86.7905039,27.7809726 L85.3075664,29.1775333 L93.125,29.1775333 C95.3995508,29.1775333 97.25,27.3221876 97.25,25.0416182 C97.25,24.4402734 97.1212656,23.8685693 96.8900938,23.3526139 C96.7155977,22.9631916 96.7919531,22.5070777 97.0930352,22.205199 L97.6165234,21.6803255 C98.1106211,21.1849205 98.9470508,21.3130046 99.2627422,21.9380448 C99.7341953,22.8712968 100,23.925912 100,25.0416182 Z M81.1099062,26.7306225 C80.8787344,26.2146671 80.75,25.642963 80.75,25.0416182 C80.75,22.7610488 82.6004492,20.9057031 84.875,20.9057031 L92.6924336,20.9057031 L91.2094961,22.302393 C90.7851797,22.7020258 90.7746953,23.3744136 91.1863359,23.7871865 L91.6493242,24.2513999 C92.0520703,24.6551686 92.7049805,24.6551686 93.1077266,24.2513999 L97.0903281,20.2582601 C97.4930742,19.8544483 97.4930742,19.1998105 97.0903281,18.7959987 L93.1077266,14.8028588 C92.7049805,14.3990471 92.0520703,14.3990471 91.6493242,14.8028588 L91.1863359,15.2670722 C90.7746523,15.6798452 90.7851367,16.3521899 91.2094961,16.7518657 L92.6924336,18.1484264 L84.875,18.1484264 C81.084082,18.1484264 78,21.2407122 78,25.0416182 C78,26.1573244 78.2658047,27.2119396 78.7372148,28.1452347 C79.0529063,28.7702749 79.8893359,28.898359 80.3834336,28.4029539 L80.9069219,27.8780805 C81.2080469,27.5761587 81.2844453,27.1200448 81.1099062,26.7306225 Z" id="Shape"></path>
                </g>
            </g>
        </g>
    </g>
</svg>