<?xml version="1.0" encoding="UTF-8"?>
<svg width="21px" height="24px" viewBox="0 0 21 24" version="1.1" xmlns="http://www.w3.org/2000/svg" xmlns:xlink="http://www.w3.org/1999/xlink">
    <!-- Generator: Sketch 55.2 (78181) - https://sketchapp.com -->
    <title>Shape</title>
    <desc>Created with Sketch.</desc>
    <g id="Corporate-Portal" stroke="none" stroke-width="1" fill="none" fill-rule="evenodd">
        <g id="Merchant-Portal---Corporate---Merchants" transform="translate(-990.000000, -107.000000)" fill="#3989E3" fill-rule="nonzero">
            <g id="Group-4" transform="translate(970.000000, 95.000000)">
                <path d="M20,33.75 C20,34.9921875 21.0078125,36 22.25,36 L38.75,36 C39.9921875,36 41,34.9921875 41,33.75 L41,21 L20,21 L20,33.75 Z M35,24.5625 C35,24.253125 35.253125,24 35.5625,24 L37.4375,24 C37.746875,24 38,24.253125 38,24.5625 L38,26.4375 C38,26.746875 37.746875,27 37.4375,27 L35.5625,27 C35.253125,27 35,26.746875 35,26.4375 L35,24.5625 Z M35,30.5625 C35,30.253125 35.253125,30 35.5625,30 L37.4375,30 C37.746875,30 38,30.253125 38,30.5625 L38,32.4375 C38,32.746875 37.746875,33 37.4375,33 L35.5625,33 C35.253125,33 35,32.746875 35,32.4375 L35,30.5625 Z M29,24.5625 C29,24.253125 29.253125,24 29.5625,24 L31.4375,24 C31.746875,24 32,24.253125 32,24.5625 L32,26.4375 C32,26.746875 31.746875,27 31.4375,27 L29.5625,27 C29.253125,27 29,26.746875 29,26.4375 L29,24.5625 Z M29,30.5625 C29,30.253125 29.253125,30 29.5625,30 L31.4375,30 C31.746875,30 32,30.253125 32,30.5625 L32,32.4375 C32,32.746875 31.746875,33 31.4375,33 L29.5625,33 C29.253125,33 29,32.746875 29,32.4375 L29,30.5625 Z M23,24.5625 C23,24.253125 23.253125,24 23.5625,24 L25.4375,24 C25.746875,24 26,24.253125 26,24.5625 L26,26.4375 C26,26.746875 25.746875,27 25.4375,27 L23.5625,27 C23.253125,27 23,26.746875 23,26.4375 L23,24.5625 Z M23,30.5625 C23,30.253125 23.253125,30 23.5625,30 L25.4375,30 C25.746875,30 26,30.253125 26,30.5625 L26,32.4375 C26,32.746875 25.746875,33 25.4375,33 L23.5625,33 C23.253125,33 23,32.746875 23,32.4375 L23,30.5625 Z M38.75,15 L36.5,15 L36.5,12.75 C36.5,12.3375 36.1625,12 35.75,12 L34.25,12 C33.8375,12 33.5,12.3375 33.5,12.75 L33.5,15 L27.5,15 L27.5,12.75 C27.5,12.3375 27.1625,12 26.75,12 L25.25,12 C24.8375,12 24.5,12.3375 24.5,12.75 L24.5,15 L22.25,15 C21.0078125,15 20,16.0078125 20,17.25 L20,19.5 L41,19.5 L41,17.25 C41,16.0078125 39.9921875,15 38.75,15 Z" id="Shape"></path>
            </g>
        </g>
    </g>
</svg>