<?xml version="1.0" encoding="UTF-8"?>
<svg width="40px" height="40px" viewBox="0 0 40 40" version="1.1" xmlns="http://www.w3.org/2000/svg" xmlns:xlink="http://www.w3.org/1999/xlink">
    <!-- Generator: Sketch 59.1 (86144) - https://sketch.com -->
    <title>Group 14</title>
    <desc>Created with Sketch.</desc>
    <g id="Page-1" stroke="none" stroke-width="1" fill="none" fill-rule="evenodd">
        <g id="Borrower-Portal---Dashboard---Past-Due" transform="translate(-577.000000, -108.000000)">
            <g id="Group-13" transform="translate(577.000000, 108.000000)">
                <g id="Group-14">
                    <circle id="Oval" fill="#D82027" cx="20" cy="20" r="20"></circle>
                    <path d="M23.25,26.875 C23.25,28.598125 21.848125,30 20.125,30 C18.401875,30 17,28.598125 17,26.875 C17,25.151875 18.401875,23.75 20.125,23.75 C21.848125,23.75 23.25,25.151875 23.25,26.875 Z M17.3617188,10.9843359 L17.8929688,21.6093359 C17.9179297,22.1082812 18.3297266,22.5 18.8292969,22.5 L21.4207031,22.5 C21.9202734,22.5 22.3320703,22.1082812 22.3570312,21.6093359 L22.8882812,10.9843359 C22.9150391,10.4488281 22.488125,10 21.9519531,10 L18.2980469,10 C17.761875,10 17.3349609,10.4488281 17.3617188,10.9843359 Z" id="Shape" fill="#FFFFFF" fill-rule="nonzero"></path>
                </g>
            </g>
        </g>
    </g>
</svg>