<?xml version="1.0" encoding="UTF-8"?>
<svg width="18px" height="24px" viewBox="0 0 18 24" version="1.1" xmlns="http://www.w3.org/2000/svg" xmlns:xlink="http://www.w3.org/1999/xlink">
    <!-- Generator: Sketch 55.2 (78181) - https://sketchapp.com -->
    <title>Shape</title>
    <desc>Created with Sketch.</desc>
    <g id="Corporate-Portal" stroke="none" stroke-width="1" fill="none" fill-rule="evenodd">
        <g id="Merchant-Portal---Corporate---Merchants" transform="translate(-868.000000, -107.000000)" fill="#A5B0BB" fill-rule="nonzero">
            <g id="Group-38" transform="translate(854.000000, 95.000000)">
                <path d="M24.5,18.375 L24.5,12 L15.125,12 C14.5015625,12 14,12.5015625 14,13.125 L14,34.875 C14,35.4984375 14.5015625,36 15.125,36 L30.875,36 C31.4984375,36 32,35.4984375 32,34.875 L32,19.5 L25.625,19.5 C25.00625,19.5 24.5,18.99375 24.5,18.375 Z M28.0835937,28.2825 L23.5639062,32.7684375 C23.2521875,33.0782813 22.74875,33.0782813 22.4370312,32.7684375 L17.9173437,28.2825 C17.4415625,27.8104687 17.7753125,27 18.4446875,27 L21.5,27 L21.5,23.25 C21.5,22.835625 21.835625,22.5 22.25,22.5 L23.75,22.5 C24.164375,22.5 24.5,22.835625 24.5,23.25 L24.5,27 L27.5553125,27 C28.2246875,27 28.5584375,27.8104687 28.0835937,28.2825 Z M31.671875,16.921875 L27.0828125,12.328125 C26.871875,12.1171875 26.5859375,12 26.2859375,12 L26,12 L26,18 L32,18 L32,17.7140625 C32,17.41875 31.8828125,17.1328125 31.671875,16.921875 Z" id="Shape"></path>
            </g>
        </g>
    </g>
</svg>