<?xml version="1.0" encoding="UTF-8"?>
<svg width="22px" height="18px" viewBox="0 0 22 18" version="1.1" xmlns="http://www.w3.org/2000/svg" xmlns:xlink="http://www.w3.org/1999/xlink">
    <!-- Generator: Sketch 52.4 (67378) - http://www.bohemiancoding.com/sketch -->
    <title>Group</title>
    <desc>Created with Sketch.</desc>
    <g id="Page-1" stroke="none" stroke-width="1" fill="none" fill-rule="evenodd">
        <g id="Merchant-Portal---Dashboard-V2" transform="translate(-91.000000, -782.000000)" fill="#04BC6C" fill-rule="nonzero">
            <g id="Group-11" transform="translate(50.000000, 566.000000)">
                <g id="Group-14" transform="translate(25.000000, 180.000000)">
                    <g id="Group-15" transform="translate(2.000000, 20.000000)">
                        <g id="Group" transform="translate(14.000000, 16.000000)">
                            <path d="M19.9806129,0 L2.0193871,0 C0.906258065,0 0,0.904309122 0,2.0153984 L0.00035483871,15.9885873 C0.00035483871,17.0996765 0.906612903,18.0036316 2.01974194,18.0036316 L19.9806129,18.0036316 C21.0940968,18.0036316 22,17.0993225 22,15.9885873 L21.9996452,2.0153984 C22,0.904309122 21.0937419,0 19.9806129,0 Z M7.03858065,9.48826306 L2.0193871,14.414978 L2.0193871,2.65839972 C2.0193871,2.30326188 2.30787097,2.0153984 2.66377419,2.0153984 L19.3362258,2.0153984 C19.692129,2.0153984 19.9806129,2.30326188 19.9806129,2.65839972 L19.9806129,14.414978 L13.554129,8.06310871 C13.1783548,7.68814263 12.5669677,7.69593229 12.2007742,8.08010434 L10.0994194,10.284225 L9.63529032,10.7473559 L8.3756129,9.48897121 C8.00693548,9.12002442 7.40796774,9.11967034 7.03858065,9.48826306 Z" id="Shape"></path>
                            <circle id="Oval" cx="8.74358065" cy="5.70219355" r="2.0193871"></circle>
                        </g>
                    </g>
                </g>
            </g>
        </g>
    </g>
</svg>