<?xml version="1.0" encoding="UTF-8"?>
<svg width="24px" height="24px" viewBox="0 0 24 24" version="1.1" xmlns="http://www.w3.org/2000/svg" xmlns:xlink="http://www.w3.org/1999/xlink">
    <!-- Generator: Sketch 59.1 (86144) - https://sketch.com -->
    <title>Shape</title>
    <desc>Created with Sketch.</desc>
    <g id="Page-1" stroke="none" stroke-width="1" fill="none" fill-rule="evenodd">
        <g id="Borrower-Portal---Dashboard" transform="translate(-148.000000, -566.000000)" fill="#2B445F" fill-rule="nonzero">
            <g id="Group-11" transform="translate(50.000000, 186.000000)">
                <g id="Group-7" transform="translate(25.000000, 367.000000)">
                    <path d="M85,13 C78.3709677,13 73,18.3709677 73,25 C73,31.6290323 78.3709677,37 85,37 C91.6290323,37 97,31.6290323 97,25 C97,18.3709677 91.6290323,13 85,13 Z M86.1612903,31.1935484 L86.1612903,31.9677419 C86.1612903,32.3935484 85.8129032,32.7419355 85.3870968,32.7419355 L84.6129032,32.7419355 C84.1870968,32.7419355 83.8387097,32.3935484 83.8387097,31.9677419 L83.8387097,31.183871 C83.0403226,31.1548387 82.2612903,30.9032258 81.5935484,30.4532258 C81.1725806,30.1677419 81.1096774,29.5774194 81.4822581,29.233871 L82.0629032,28.6870968 C82.3241935,28.4403226 82.7064516,28.4258065 83.016129,28.6096774 C83.3112903,28.783871 83.6403226,28.8709677 83.9790323,28.8709677 L86.1564516,28.8709677 C86.7032258,28.8709677 87.1483871,28.3629032 87.1483871,27.7387097 C87.1483871,27.2258065 86.8435484,26.7758065 86.4129032,26.6403226 L82.9193548,25.5806452 C81.516129,25.1548387 80.5387097,23.7903226 80.5387097,22.2612903 C80.5387097,20.3596774 82.0193548,18.8112903 83.8387097,18.8064516 L83.8387097,18.0322581 C83.8387097,17.6064516 84.1870968,17.2580645 84.6129032,17.2580645 L85.3870968,17.2580645 C85.8129032,17.2580645 86.1612903,17.6064516 86.1612903,18.0322581 L86.1612903,18.816129 C86.9596774,18.8451613 87.7387097,19.0967742 88.4064516,19.5467742 C88.8274194,19.8322581 88.8903226,20.4225806 88.5177419,20.766129 L87.9370968,21.3129032 C87.6758065,21.5596774 87.2935484,21.5741935 86.983871,21.3903226 C86.6887097,21.216129 86.3596774,21.1290323 86.0209677,21.1290323 L83.8435484,21.1290323 C83.2967742,21.1290323 82.8516129,21.6370968 82.8516129,22.2612903 C82.8516129,22.7741935 83.1564516,23.2241935 83.5870968,23.3596774 L87.0709677,24.4193548 C88.4741935,24.8451613 89.4516601,26.2096774 89.4516601,27.7387097 C89.4612903,29.6403226 87.9806452,31.183871 86.1612903,31.1935484 Z" id="Shape"></path>
                </g>
            </g>
        </g>
    </g>
</svg>