<?xml version="1.0" encoding="UTF-8"?>
<svg width="24px" height="24px" viewBox="0 0 24 24" version="1.1" xmlns="http://www.w3.org/2000/svg" xmlns:xlink="http://www.w3.org/1999/xlink">
    <!-- Generator: Sketch 59.1 (86144) - https://sketch.com -->
    <title>Shape</title>
    <desc>Created with Sketch.</desc>
    <g id="Page-1" stroke="none" stroke-width="1" fill="none" fill-rule="evenodd">
        <g id="Borrower-Portal---My-Loans---Documents" transform="translate(-1147.000000, -199.000000)" fill="#A5B0BB" fill-rule="nonzero">
            <g id="Group-11" transform="translate(451.000000, 186.000000)">
                <g id="Group-36" transform="translate(25.000000, 0.000000)">
                    <path d="M692,22 L692,16.6210938 C692,16.223125 691.842031,15.8420312 691.560781,15.5603125 L689.439219,13.4392188 C689.157969,13.1579688 688.776406,13 688.378438,13 L675.5,13 C674.671719,13 674,13.6717188 674,14.5 L674,22 C672.342969,22 671,23.3429688 671,25 L671,30.25 C671,30.664375 671.335625,31 671.75,31 L674,31 L674,35.5 C674,36.3282813 674.671719,37 675.5,37 L690.5,37 C691.328281,37 692,36.3282813 692,35.5 L692,31 L694.25,31 C694.664375,31 695,30.664375 695,30.25 L695,25 C695,23.3429688 693.657031,22 692,22 Z M689,34 L677,34 L677,29.5 L689,29.5 L689,34 Z M689,23.5 L677,23.5 L677,16 L686,16 L686,18.25 C686,18.664375 686.335625,19 686.75,19 L689,19 L689,23.5 Z M691.25,26.875 C690.628906,26.875 690.125,26.3710938 690.125,25.75 C690.125,25.1284375 690.628906,24.625 691.25,24.625 C691.871094,24.625 692.375,25.1284375 692.375,25.75 C692.375,26.3710938 691.871094,26.875 691.25,26.875 Z" id="Shape"></path>
                </g>
            </g>
        </g>
    </g>
</svg>