<?xml version="1.0" encoding="UTF-8"?>
<svg width="23px" height="23px" viewBox="0 0 23 23" version="1.1" xmlns="http://www.w3.org/2000/svg" xmlns:xlink="http://www.w3.org/1999/xlink">
    <!-- Generator: Sketch 55.2 (78181) - https://sketchapp.com -->
    <title>Combined Shape</title>
    <desc>Created with Sketch.</desc>
    <g id="Corporate-Portal" stroke="none" stroke-width="1" fill="none" fill-rule="evenodd">
        <g id="Merchant-Portal---Corporate---Dashboard" transform="translate(-90.000000, -409.000000)" fill="#B0ACBE" stroke="#FFFFFF" stroke-width="0.5">
            <g id="Group-11" transform="translate(50.000000, 285.000000)">
                <g id="Group-14" transform="translate(25.000000, 90.000000)">
                    <g id="Group-15" transform="translate(2.000000, 20.000000)">
                        <path d="M25.9957,19.6792331 C26.4104095,19.8460203 26.7858803,20.0808247 27.1115,20.395975 C27.502,20.771975 27.751,21.223725 27.9415,21.724225 C28.05625,22.026725 27.966,22.388225 27.8195,22.663975 C27.6705,22.947225 27.38475,23.130475 27.0895,23.225475 C26.7965,23.320725 26.41075,23.257225 26.1495,23.103475 C25.859,22.932725 25.70275,22.678725 25.588,22.373475 C25.57575,22.341725 25.56125,22.309975 25.549,22.278225 C25.588,22.373475 25.6295,22.471225 25.671,22.568725 C25.59775,22.400475 25.505,22.244225 25.39525,22.099975 C25.4585,22.182975 25.522,22.263725 25.5855,22.346725 C25.47325,22.204975 25.34625,22.078225 25.20475,21.965725 C25.28775,22.029225 25.36825,22.092725 25.45125,22.156225 C25.30475,22.046475 25.151,21.955975 24.9825,21.882725 C25.07775,21.921975 25.1755,21.963475 25.273,22.004975 C25.10225,21.933975 24.924,21.885225 24.7385,21.858475 C24.84575,21.872975 24.95575,21.887725 25.063,21.902225 C24.8775,21.877975 24.692,21.877975 24.5065,21.899975 C24.614,21.885225 24.72375,21.870475 24.83125,21.855975 C24.6455,21.882725 24.4675,21.929225 24.294,21.999975 C24.38925,21.960975 24.487,21.919475 24.5845,21.877975 C24.416,21.948725 24.25975,22.038975 24.1135,22.148975 C24.1965,22.085475 24.277,22.021975 24.36,21.958475 C24.20625,22.078225 24.072,22.212475 23.95475,22.363725 C24.01825,22.280725 24.08175,22.200225 24.14525,22.117225 C24.03525,22.263725 23.945,22.419975 23.87425,22.588475 C23.91325,22.493225 23.95475,22.395475 23.99625,22.297725 C23.9255,22.471225 23.8765,22.649475 23.85225,22.834975 C23.86675,22.727475 23.8815,22.617725 23.896,22.510225 C23.87425,22.690975 23.87425,22.871475 23.896,23.052225 C23.8815,22.944725 23.86675,22.834975 23.85225,22.727475 C23.8765,22.925225 23.92775,23.113225 24.006,23.296475 C23.967,23.201225 23.9255,23.103475 23.884,23.005975 C23.9595,23.171975 24.05,23.328225 24.16225,23.472225 C24.09875,23.389225 24.03525,23.308475 23.97175,23.225475 C24.084,23.367225 24.211,23.494225 24.355,23.603975 C24.272,23.540475 24.1915,23.476975 24.1085,23.413475 C24.255,23.523475 24.41125,23.613725 24.57975,23.684475 C24.4845,23.645475 24.38675,23.603975 24.28925,23.562475 C24.4625,23.633225 24.64075,23.682225 24.82625,23.706475 C24.71875,23.691975 24.609,23.677225 24.5015,23.662475 C24.604,23.674725 24.70425,23.677225 24.80675,23.679725 C25.002,23.684475 25.195,23.716225 25.38525,23.743225 C25.62225,23.777225 25.8345,23.852975 26.05425,23.945725 C26.51075,24.138725 26.9405,24.411975 27.26275,24.797725 C27.59725,25.200725 27.8585,25.635225 27.99525,26.145475 C28.13675,26.672725 28.1295,27.195225 28.03175,27.727475 C27.983,27.988725 27.878,28.230475 27.7705,28.472225 C27.70475,28.618725 27.6265,28.757725 27.53125,28.887225 C27.22625,29.299725 26.8845,29.656225 26.43025,29.912475 C26.289876,29.9922847 26.1445595,30.0611787 25.9956546,30.1190746 C25.9956848,30.1223682 25.9957,30.1256601 25.9957,30.12895 L25.9957,30.8452 C25.9957,31.1772 25.85645,31.4702 25.6392,31.70945 C25.4172,31.9487 25.08995,32.0512 24.77495,32.06595 C24.4697,32.08045 24.1232,31.92195 23.9107,31.70945 C23.69095,31.4872 23.5542,31.1577 23.5542,30.8452 L23.5542,30.12895 C23.5542,30.1231116 23.5542423,30.1172852 23.5543266,30.1114709 C23.5355782,30.1039858 23.5168851,30.0963206 23.49825,30.088475 C23.0635,29.902725 22.65825,29.646475 22.3385,29.292475 C21.982,28.891975 21.72075,28.442975 21.567,27.927725 C21.47175,27.607975 21.53775,27.273475 21.6915,26.990225 C21.8405,26.706975 22.126,26.523975 22.4215,26.428725 C22.7145,26.333475 23.10025,26.396975 23.3615,26.550725 C23.6325,26.709475 23.835,26.982975 23.923,27.280725 C23.945,27.356475 23.97175,27.429725 24.001,27.502975 C23.962,27.407725 23.9205,27.309975 23.879,27.212475 C23.95475,27.388225 24.05,27.549225 24.16475,27.700725 C24.10125,27.617725 24.03775,27.537225 23.97425,27.453975 C24.084,27.593225 24.2085,27.717725 24.34775,27.827725 C24.26475,27.764225 24.18425,27.700725 24.10125,27.637225 C24.2525,27.751975 24.41375,27.847225 24.5895,27.920475 C24.49425,27.881225 24.3965,27.839725 24.299,27.798225 C24.4675,27.866725 24.64325,27.915475 24.82375,27.939975 C24.7165,27.925225 24.6065,27.910725 24.49925,27.895975 C24.68225,27.920475 24.86775,27.920475 25.051,27.898475 C24.9435,27.912975 24.8335,27.927725 24.72625,27.942475 C24.91175,27.915475 25.09,27.869225 25.26325,27.798225 C25.168,27.837475 25.0705,27.878975 24.97275,27.920475 C25.14125,27.849725 25.2975,27.759225 25.444,27.649475 C25.361,27.712975 25.2805,27.776475 25.19725,27.839725 C25.339,27.729975 25.46825,27.602975 25.58075,27.461475 C25.51725,27.544475 25.45375,27.624975 25.39025,27.707975 C25.50975,27.556725 25.605,27.390725 25.68075,27.212475 C25.64175,27.307725 25.60025,27.405225 25.55875,27.502975 C25.627,27.329475 25.676,27.151475 25.70025,26.965725 C25.68575,27.073225 25.671,27.182975 25.65625,27.290475 C25.67825,27.109975 25.67825,26.929225 25.65625,26.748475 C25.671,26.855975 25.68575,26.965725 25.70025,27.073225 C25.676,26.887725 25.6295,26.709475 25.55875,26.536225 C25.59775,26.631225 25.63925,26.728975 25.68075,26.826725 C25.61,26.658225 25.51975,26.501975 25.40975,26.355475 C25.47325,26.438475 25.53675,26.518975 25.60025,26.601975 C25.49025,26.457975 25.3635,26.328725 25.22175,26.216225 C25.30475,26.279725 25.38525,26.343225 25.46825,26.406725 C25.3145,26.289475 25.1485,26.191975 24.97025,26.116225 C25.0655,26.155225 25.16325,26.196725 25.26075,26.238225 C25.0875,26.167475 24.90675,26.118725 24.72125,26.094225 C24.82875,26.108975 24.9385,26.123475 25.046,26.138225 C24.9435,26.125975 24.84325,26.123475 24.74075,26.120975 C24.55275,26.116225 24.36475,26.086975 24.17925,26.059975 C23.99875,26.035725 23.82775,25.989225 23.65675,25.923225 C23.149,25.723225 22.6705,25.447225 22.30925,25.027225 C21.97475,24.636725 21.72325,24.216725 21.57425,23.718725 C21.418,23.198725 21.42775,22.683475 21.506,22.156225 C21.567,21.748475 21.7355,21.333475 21.965,20.991725 C22.2505,20.564475 22.59475,20.220225 23.027,19.944225 C23.1907419,19.8397013 23.3688502,19.7490348 23.5542225,19.6763687 C23.5542075,19.6740532 23.5542,19.6717387 23.5542,19.669425 L23.5542,18.953175 C23.5542,18.621175 23.69095,18.328175 23.9107,18.088925 C24.13295,17.849675 24.45995,17.747175 24.77495,17.732425 C25.0802,17.717675 25.42695,17.876425 25.6392,18.088925 C25.85895,18.310925 25.9957,18.640675 25.9957,18.953175 L25.9957,19.669425 L25.9957,19.6792331 Z M30.8165711,19.277725 C30.4837063,18.9308158 30.1251372,18.6084301 29.74315,18.31355 C29.82615,18.37705 29.9069,18.44055 29.9899,18.5038 C29.3404,18.0058 28.62765,17.5908 27.87315,17.27105 C27.9684,17.31005 28.0659,17.35155 28.16365,17.39305 C27.3874,17.0708 26.57665,16.84855 25.74415,16.7338 C25.85165,16.74855 25.9614,16.7633 26.0689,16.7778 C25.2119,16.66305 24.3429,16.66305 23.4859,16.7778 C23.5934,16.7633 23.70315,16.74855 23.81065,16.7338 C22.9829,16.84855 22.1724,17.0683 21.4009,17.39055 C21.49615,17.35155 21.5939,17.31005 21.6914,17.26855 C20.9299,17.5908 20.2119,18.0108 19.55515,18.51605 C19.6384,18.45255 19.7189,18.38905 19.8019,18.3258 C19.1524,18.82855 18.5689,19.41455 18.0659,20.06405 C18.1294,19.98105 18.1929,19.9003 18.2564,19.8173 C17.7584,20.4643 17.3434,21.1723 17.02365,21.9243 C17.06265,21.82905 17.10415,21.73155 17.14565,21.6338 C16.8159,22.41255 16.5914,23.2328 16.47665,24.0728 C16.4914,23.9653 16.5059,23.85555 16.52065,23.74805 C16.4059,24.60505 16.4059,25.4718 16.52065,26.32605 C16.5059,26.2188 16.4914,26.1088 16.47665,26.00155 C16.5914,26.8413 16.8159,27.6593 17.14565,28.44055 C17.10665,28.3453 17.06515,28.24755 17.02365,28.1498 C17.3434,28.9018 17.7584,29.6098 18.2564,30.2568 C18.1929,30.1738 18.1294,30.0933 18.0659,30.0103 C18.5689,30.66205 19.1524,31.24555 19.8019,31.74855 C19.7189,31.68505 19.6384,31.62155 19.55515,31.55805 C20.2119,32.06355 20.9299,32.48105 21.6914,32.8033 C21.5964,32.76405 21.49865,32.72255 21.4009,32.68105 C22.1724,33.0033 22.9829,33.22555 23.81065,33.3378 C23.70315,33.3233 23.5934,33.30855 23.4859,33.29405 C24.3429,33.4088 25.20965,33.4088 26.06415,33.29405 C25.95665,33.30855 25.84665,33.3233 25.7394,33.3378 C26.57915,33.22305 27.39715,32.99855 28.1784,32.66905 C28.08315,32.70805 27.9854,32.74955 27.8879,32.79105 C28.63965,32.4713 29.34765,32.05605 29.99465,31.55805 C29.91165,31.62155 29.83115,31.68505 29.74815,31.74855 C30.39765,31.24555 30.98115,30.66205 31.4839,30.0128 C31.4204,30.0958 31.35715,30.1763 31.29365,30.2593 C31.7989,29.60255 32.2164,28.8848 32.53865,28.12305 C32.49965,28.2183 32.45815,28.3158 32.41665,28.41355 C32.7389,27.64205 32.95865,26.83155 33.0709,26.0038 C33.05615,26.1113 33.04165,26.2213 33.0269,26.32855 C33.08315,25.9013 33.1124,25.4718 33.1124,25.03955 C33.1124,24.71005 33.24915,24.41705 33.4689,24.1753 C33.6909,23.93605 34.01815,23.83355 34.33315,23.8188 C34.6384,23.8043 34.9849,23.9628 35.1974,24.1753 C35.41715,24.39755 35.5539,24.72705 35.5539,25.03955 C35.5539,25.5913 35.49515,26.1383 35.41965,26.68505 C35.14615,28.6553 34.2574,30.4888 32.9904,32.0098 C31.7379,33.51605 30.03865,34.6318 28.1904,35.2618 C26.2619,35.9208 24.12315,35.98205 22.1504,35.49355 C20.2534,35.0248 18.48115,34.00205 17.1089,32.6128 C15.7369,31.22355 14.73115,29.4413 14.28915,27.53455 C13.82765,25.5548 13.91065,23.4208 14.5944,21.49955 C15.25115,19.6588 16.37665,17.97405 17.8999,16.7363 C18.66415,16.1163 19.47965,15.58155 20.3854,15.1908 C20.8884,14.97605 21.39365,14.7758 21.9234,14.6318 C22.46065,14.4853 23.00265,14.3998 23.5519,14.32905 C25.68815,14.05555 27.8999,14.50255 29.8044,15.49605 C30.5788001,15.8989958 31.3034249,16.4044736 31.957725,16.9898504 L31.957725,16.911975 C31.957725,16.579975 32.094225,16.286975 32.313975,16.047725 C32.536225,15.808475 32.863475,15.705975 33.178225,15.691475 C33.483475,15.676725 33.830225,15.835475 34.042475,16.047725 C34.262225,16.269975 34.398975,16.599475 34.398975,16.911975 L34.398975,17.363725 L34.398975,20.4032415 C34.4040346,20.485624 34.4007135,20.5675811 34.3893555,20.6480988 C34.3399769,21.0305691 34.1046918,21.3644154 33.78092,21.5537936 C33.772811,21.5585957 33.7645889,21.5632786 33.7562601,21.5678426 C33.582818,21.6640479 33.3853458,21.719225 33.178225,21.719225 L32.770725,21.719225 L29.838475,21.719225 C29.506475,21.719225 29.213475,21.579975 28.974225,21.362725 C28.734975,21.140725 28.632475,20.813475 28.617725,20.498475 C28.603225,20.193225 28.761725,19.846725 28.974225,19.634225 C29.196475,19.414475 29.525975,19.277725 29.838475,19.277725 L30.246225,19.277725 L30.8165711,19.277725 Z" id="Combined-Shape"></path>
                    </g>
                </g>
            </g>
        </g>
    </g>
</svg>